<svg width="1317" height="264" viewBox="0 0 1317 264" fill="none" xmlns="http://www.w3.org/2000/svg">
<path d="M933.675 100.596L907.704 163.542H897.232L871.175 100.596H882.451L902.418 151.547L922.471 100.596H933.661H933.675Z" fill="white"/>
<path d="M1188.3 109.372L1180.69 114.471C1179.2 112.331 1177.07 110.636 1174.28 109.415C1171.51 108.194 1168.48 107.547 1165.19 107.49C1160.9 107.49 1157.41 108.338 1154.72 110.047C1152.03 111.742 1150.68 114.069 1150.68 116.985C1150.68 119.729 1151.99 121.725 1154.58 122.99C1157.18 124.239 1160.95 125.23 1165.91 125.949C1169.62 126.48 1172.78 127.112 1175.4 127.83C1178.03 128.549 1180.62 129.612 1183.19 131.005C1185.76 132.413 1187.71 134.323 1189.05 136.737C1190.4 139.15 1191.06 142.037 1191.06 145.384C1191.06 149.866 1189.77 153.586 1187.17 156.574C1184.57 159.562 1181.41 161.659 1177.67 162.88C1173.94 164.101 1169.74 164.719 1165.09 164.719C1152.26 164.719 1143.27 159.979 1138.14 150.484L1145.65 145.47C1149.72 152.337 1156.21 155.77 1165.18 155.77C1167.92 155.77 1170.42 155.468 1172.69 154.879C1174.96 154.276 1176.91 153.155 1178.55 151.518C1180.19 149.88 1181.01 147.826 1181.01 145.384C1181.01 142.224 1179.58 139.882 1176.75 138.36C1173.92 136.837 1169.99 135.745 1164.98 135.085C1162.12 134.725 1159.65 134.309 1157.59 133.835C1155.54 133.361 1153.37 132.671 1151.1 131.781C1148.83 130.89 1146.99 129.813 1145.6 128.563C1144.19 127.313 1143.03 125.676 1142.11 123.679C1141.19 121.682 1140.73 119.398 1140.73 116.827C1140.73 113.724 1141.45 110.981 1142.88 108.596C1144.32 106.212 1146.23 104.33 1148.61 102.951C1151 101.572 1153.57 100.552 1156.31 99.8624C1159.06 99.1729 1161.92 98.8281 1164.9 98.8281C1176.06 98.8281 1183.85 102.347 1188.27 109.386L1188.3 109.372Z" fill="white"/>
<path d="M1280.42 110.363H1298.28H1316.42V100.595H1270.4V110.363H1280.42Z" fill="white"/>
<path d="M1280.42 153.428V136.592H1314.99V127.284H1298.28H1280.42H1270.4V163.268H1316.68V153.428H1280.42Z" fill="white"/>
<path d="M1063.68 161.486L1044.96 140.629C1050.75 139.795 1055.03 137.569 1057.8 133.963C1060.57 130.358 1061.97 126.077 1061.97 121.121C1061.97 115.519 1060.01 110.693 1056.11 106.656C1052.2 102.634 1046.78 100.609 1039.86 100.609C1036.64 100.609 1031.77 100.609 1025.26 100.566C1018.76 100.537 1013.9 100.522 1010.67 100.522V163.282H1020.7V109.745H1039.86C1043.74 109.745 1046.7 110.894 1048.72 113.192C1050.75 115.49 1051.77 118.191 1051.77 121.294C1051.77 124.397 1050.75 127.111 1048.72 129.266C1046.7 131.421 1043.71 132.484 1039.77 132.484H1033.96V141.62L1053.03 163.282H1064.75L1063.68 161.486Z" fill="white"/>
<path d="M396.479 163.369V115.291L375.177 144.925H373.022L351.978 115.291V163.369H341.951V100.696H353.586L374.272 130.058L394.871 100.696H406.506V163.369H396.479Z" fill="white"/>
<path d="M669.193 108.568L662.93 115.017C660.775 112.863 658.161 111.211 655.101 110.047C652.027 108.884 648.996 108.295 646.008 108.295C638.912 108.295 633.267 110.622 629.087 115.276C624.907 119.93 622.852 125.69 622.91 132.557C622.91 138.877 624.849 144.221 628.728 148.588C632.606 152.94 638.366 155.124 646.008 155.124C651.797 155.124 656.897 153.27 661.321 149.579V136.866H653.636V127.917H670.644V153.615C664.022 160.898 655.805 164.532 646.023 164.532C640.478 164.532 635.536 163.656 631.213 161.889C626.889 160.122 623.441 157.738 620.87 154.721C618.299 151.705 616.36 148.329 615.052 144.609C613.745 140.874 613.084 136.866 613.084 132.571C613.084 123.076 616.015 115.132 621.861 108.711C627.708 102.29 635.766 99.0869 646.037 99.0869C655.115 99.0869 662.844 102.247 669.222 108.582L669.193 108.568Z" fill="white"/>
<path d="M500.336 110.363H519.384H536.334V100.595H490.309V110.363H500.336Z" fill="white"/>
<path d="M500.336 153.428V136.592H534.897V127.284H519.384H500.336H490.309V163.268H536.592V153.428H500.336Z" fill="white"/>
<path d="M782.185 100.595H771.268L743.142 163.268H753.801L759.705 150.11L763.468 140.974L776.727 111.167L789.971 140.974H772.92L776.928 150.11H793.648L799.638 163.268H810.297L782.185 100.595Z" fill="white"/>
<path d="M142.641 16.4756V49.4282L114.113 65.8901V32.9519L142.641 16.4756Z" fill="url(#paint0_linear_171_1733)"/>
<path d="M114.113 65.8901L85.5704 49.4282V16.4756L114.113 32.9519V65.8901Z" fill="url(#paint1_linear_171_1733)"/>
<path d="M114.113 0L85.5704 16.4763L114.113 32.9526L142.641 16.4763L114.113 0Z" fill="url(#paint2_linear_171_1733)"/>
<path d="M28.5282 214.092L57.0564 197.616V131.739L28.6288 115.32L28.5282 214.092Z" fill="url(#paint3_linear_171_1733)"/>
<path d="M171.17 131.811V197.616L199.698 214.092V115.378L171.17 131.811Z" fill="url(#paint4_linear_171_1733)"/>
<path d="M228.226 65.8485L199.784 49.4297L114.142 98.8011L28.6288 49.4297L0 65.8485L114.113 131.739L228.226 65.8485Z" fill="url(#paint5_linear_171_1733)"/>
<path d="M0 65.8477V197.615L28.5283 214.091L28.6288 115.32L114.113 164.677V131.738L0 65.8477Z" fill="url(#paint6_linear_171_1733)"/>
<path d="M114.113 131.738V164.677L199.698 115.377V214.091L228.226 197.615V65.8477L114.113 131.738Z" fill="url(#paint7_linear_171_1733)"/>
<path d="M142.641 214.091V247.043L114.113 263.52V230.567L142.641 214.091Z" fill="url(#paint8_linear_171_1733)"/>
<path d="M114.113 263.52L85.5704 247.043V214.091L114.113 230.567V263.52Z" fill="url(#paint9_linear_171_1733)"/>
<path d="M114.113 197.615L85.5704 214.091L114.113 230.568L142.641 214.091L114.113 197.615Z" fill="url(#paint10_linear_171_1733)"/>
<defs>
<linearGradient id="paint0_linear_171_1733" x1="113.122" y1="38.4966" x2="143.618" y2="43.869" gradientUnits="userSpaceOnUse">
<stop stop-color="#502EFF"/>
<stop offset="0.5" stop-color="#AD34FF"/>
<stop offset="1" stop-color="#FFB100"/>
</linearGradient>
<linearGradient id="paint1_linear_171_1733" x1="85.5704" y1="41.1828" x2="114.113" y2="41.1828" gradientUnits="userSpaceOnUse">
<stop stop-color="#502EFF"/>
<stop offset="1" stop-color="#AD34FF"/>
</linearGradient>
<linearGradient id="paint2_linear_171_1733" x1="125.892" y1="30.5249" x2="102.32" y2="2.42762" gradientUnits="userSpaceOnUse">
<stop stop-color="#FFB100"/>
<stop offset="0.5" stop-color="#AD34FF"/>
<stop offset="1" stop-color="#502EFF"/>
</linearGradient>
<linearGradient id="paint3_linear_171_1733" x1="54.3559" y1="204.683" x2="22.6243" y2="117.504" gradientUnits="userSpaceOnUse">
<stop stop-color="#502EFF"/>
<stop offset="0.5" stop-color="#AD34FF"/>
<stop offset="1" stop-color="#FFB100"/>
</linearGradient>
<linearGradient id="paint4_linear_171_1733" x1="163.93" y1="177.749" x2="215.556" y2="158.96" gradientUnits="userSpaceOnUse">
<stop stop-color="#502EFF"/>
<stop offset="0.5" stop-color="#AD34FF"/>
<stop offset="1" stop-color="#FFB100"/>
</linearGradient>
<linearGradient id="paint5_linear_171_1733" x1="0" y1="90.5845" x2="228.226" y2="90.5845" gradientUnits="userSpaceOnUse">
<stop stop-color="#502EFF"/>
<stop offset="0.5" stop-color="#AD34FF"/>
<stop offset="1" stop-color="#FFB100"/>
</linearGradient>
<linearGradient id="paint6_linear_171_1733" x1="0" y1="139.969" x2="114.113" y2="139.969" gradientUnits="userSpaceOnUse">
<stop stop-color="#502EFF"/>
<stop offset="0.5" stop-color="#AD34FF"/>
<stop offset="1" stop-color="#FFB100"/>
</linearGradient>
<linearGradient id="paint7_linear_171_1733" x1="114.113" y1="139.969" x2="228.226" y2="139.969" gradientUnits="userSpaceOnUse">
<stop stop-color="#502EFF"/>
<stop offset="0.5" stop-color="#AD34FF"/>
<stop offset="1" stop-color="#FFB100"/>
</linearGradient>
<linearGradient id="paint8_linear_171_1733" x1="114.113" y1="263.52" x2="142.641" y2="214.091" gradientUnits="userSpaceOnUse">
<stop stop-color="#502EFF"/>
<stop offset="0.5" stop-color="#AD34FF"/>
<stop offset="1" stop-color="#FFB100"/>
</linearGradient>
<linearGradient id="paint9_linear_171_1733" x1="84.5936" y1="241.499" x2="115.09" y2="236.112" gradientUnits="userSpaceOnUse">
<stop stop-color="#502EFF"/>
<stop offset="1" stop-color="#AD34FF"/>
</linearGradient>
<linearGradient id="paint10_linear_171_1733" x1="135.502" y1="201.738" x2="92.7096" y2="226.445" gradientUnits="userSpaceOnUse">
<stop stop-color="#FFB100"/>
<stop offset="0.5" stop-color="#AD34FF"/>
<stop offset="1" stop-color="#502EFF"/>
</linearGradient>
</defs>
</svg>
